<svg xmlns="http://www.w3.org/2000/svg" xmlns:xlink="http://www.w3.org/1999/xlink" version="1.1" x="0px" y="0px" viewBox="0 0 100 125" style="enable-background:new 0 0 100 100;" xml:space="preserve"><path d="M79.9,59.7l-3-12.8c-0.2-1-1.1-1.7-2.2-1.7h-7.2l-6.1-12.8c-0.5-1-1.4-1.6-2.5-1.6H36c-1.1,0-2,0.6-2.5,1.6l-6.1,12.8h-5.1  c-1.3,0-2.3,1.1-2.3,2.3v12.1c0,1.6,1.3,2.9,2.9,2.9h3.1c0.5,3.8,3.7,6.7,7.7,6.7c3.9,0,7.2-2.9,7.7-6.7h16.1  c0.5,3.8,3.7,6.7,7.7,6.7c3.9,0,7.2-2.9,7.7-6.7h5.1c0.7,0,1.3-0.3,1.8-0.9C79.9,61,80.1,60.3,79.9,59.7z M33.6,67.2  c-3.2,0-5.7-2.6-5.7-5.7c0-3.2,2.6-5.7,5.7-5.7s5.7,2.6,5.7,5.7C39.3,64.6,36.7,67.2,33.6,67.2z M65,67.2c-3.2,0-5.7-2.6-5.7-5.7  c0-3.2,2.6-5.7,5.7-5.7c3.2,0,5.7,2.6,5.7,5.7C70.7,64.6,68.1,67.2,65,67.2z M77.9,60.3c0,0-0.1,0.1-0.2,0.1h-5.1  c-0.5-3.8-3.7-6.7-7.7-6.7c-3.9,0-7.2,2.9-7.7,6.7H41.2c-0.5-3.8-3.7-6.7-7.7-6.7c-3.9,0-7.2,2.9-7.7,6.7h-3.1  c-0.5,0-0.9-0.4-0.9-0.9V47.5c0-0.2,0.2-0.3,0.3-0.3h5.7c0.4,0,0.7-0.2,0.9-0.6l6.4-13.3c0.1-0.3,0.4-0.4,0.7-0.4h22.9  c0.3,0,0.6,0.2,0.7,0.4L66,46.6c0.2,0.3,0.5,0.6,0.9,0.6h7.9c0.1,0,0.2,0.1,0.2,0.2l3,12.8C78,60.2,78,60.3,77.9,60.3z M58.5,35.3  c-0.2-0.3-0.5-0.6-0.9-0.6H37.4c-0.4,0-0.7,0.2-0.9,0.6l-5,10.5c-0.1,0.3-0.1,0.7,0.1,1c0.2,0.3,0.5,0.5,0.8,0.5h30.2  c0.3,0,0.7-0.2,0.8-0.5c0.2-0.3,0.2-0.7,0.1-1L58.5,35.3z M46.3,45.2H33.9l4-8.5h8.3V45.2z M48.3,45.2v-8.5H57l4,8.5H48.3z   M33.6,57.4c-2.2,0-4,1.8-4,4s1.8,4,4,4c2.2,0,4-1.8,4-4S35.8,57.4,33.6,57.4z M33.6,63.4c-1.1,0-2-0.9-2-2s0.9-2,2-2s2,0.9,2,2  S34.7,63.4,33.6,63.4z M65,57.4c-2.2,0-4,1.8-4,4s1.8,4,4,4s4-1.8,4-4S67.2,57.4,65,57.4z M65,63.4c-1.1,0-2-0.9-2-2s0.9-2,2-2  c1.1,0,2,0.9,2,2S66.1,63.4,65,63.4z"/><text x="0" y="115" fill="#000000" font-size="5px" font-weight="bold" font-family="'Helvetica Neue', Helvetica, Arial-Unicode, Arial, Sans-serif">Created by Mello</text><text x="0" y="120" fill="#000000" font-size="5px" font-weight="bold" font-family="'Helvetica Neue', Helvetica, Arial-Unicode, Arial, Sans-serif">from the Noun Project</text></svg>