<svg xmlns="http://www.w3.org/2000/svg" xmlns:xlink="http://www.w3.org/1999/xlink" version="1.1" x="0px" y="0px" viewBox="0 0 100 125" style="enable-background:new 0 0 100 100;" xml:space="preserve"><g><path d="M26,82c0,6.1,4.9,11,11,11h26c6.1,0,11-4.9,11-11V18c0-6.1-4.9-11-11-11H37c-6.1,0-11,4.9-11,11V82z M63,91H37   c-5,0-9-4-9-9v-4h44v4C72,87,68,91,63,91z M37,9h26c4.6,0,8.4,3.5,8.9,8H28.1C28.6,12.5,32.4,9,37,9z M72,19v57H28V19H72z"/><path d="M50,80c-2.4,0-4.4,2-4.4,4.4s2,4.4,4.4,4.4s4.4-2,4.4-4.4S52.4,80,50,80z M50,86.9c-1.3,0-2.4-1.1-2.4-2.4S48.7,82,50,82   s2.4,1.1,2.4,2.4S51.3,86.9,50,86.9z"/></g><text x="0" y="115" fill="#000000" font-size="5px" font-weight="bold" font-family="'Helvetica Neue', Helvetica, Arial-Unicode, Arial, Sans-serif">Created by Icon Depot</text><text x="0" y="120" fill="#000000" font-size="5px" font-weight="bold" font-family="'Helvetica Neue', Helvetica, Arial-Unicode, Arial, Sans-serif">from the Noun Project</text></svg>